<?xml version="1.0" standalone="no"?>
<!DOCTYPE svg PUBLIC "-//W3C//DTD SVG 20010904//EN"
 "http://www.w3.org/TR/2001/REC-SVG-20010904/DTD/svg10.dtd">
<svg version="1.0" xmlns="http://www.w3.org/2000/svg"
 width="512.000000pt" height="512.000000pt" viewBox="0 0 512.000000 512.000000"
 preserveAspectRatio="xMidYMid meet">

<g transform="translate(0.000000,512.000000) scale(0.100000,-0.100000)"
fill="#000000" stroke="none">
<path d="M2420 4746 c-130 -28 -193 -60 -344 -175 l-99 -76 292 -3 c160 -1
422 -1 583 0 l292 3 -100 76 c-125 96 -170 121 -268 154 -98 33 -256 42 -356
21z"/>
<path d="M999 4351 c-194 -62 -326 -221 -349 -422 -11 -97 -13 -1149 -2 -1165
4 -5 112 -92 240 -192 l232 -182 40 20 c37 19 58 20 450 20 385 0 413 -1 448
-19 78 -40 125 -116 125 -201 0 -67 -19 -115 -64 -159 -58 -58 -85 -65 -287
-71 l-182 -5 255 -200 c278 -218 330 -252 450 -292 70 -23 96 -26 205 -26 86
0 139 5 170 16 45 15 44 15 -96 16 -155 1 -174 8 -174 64 0 53 20 57 295 57
l250 0 239 188 240 187 -494 3 c-543 2 -530 1 -530 63 0 60 -12 59 615 59
l570 1 395 310 c217 171 405 319 418 330 l22 19 0 532 c0 293 -5 573 -10 622
-21 207 -159 371 -359 430 -49 14 -210 16 -1555 15 -1410 0 -1504 -1 -1557
-18z m1325 -131 c60 -23 139 -87 162 -132 15 -29 15 -33 -4 -57 -31 -42 -58
-39 -111 13 -70 69 -147 92 -215 66 -44 -16 -113 -88 -136 -141 -50 -118 -31
-278 46 -367 88 -103 198 -107 295 -11 53 51 81 60 113 36 57 -42 -28 -156
-154 -208 -55 -22 -166 -18 -222 9 -167 81 -259 292 -217 494 49 233 251 369
443 298z m275 10 c12 -6 55 -112 126 -307 60 -164 111 -301 114 -305 3 -4 55
128 115 293 120 330 131 348 185 318 17 -10 27 -24 29 -44 4 -42 -251 -744
-279 -767 -12 -10 -32 -18 -45 -18 -53 0 -68 31 -204 405 -71 198 -130 368
-130 379 0 43 48 68 89 46z m-844 -980 c71 -27 159 -110 193 -181 91 -188 12
-414 -176 -506 -51 -25 -67 -28 -162 -28 -94 0 -111 3 -161 28 -67 32 -152
119 -180 181 -75 170 -21 365 129 468 102 71 234 84 357 38z m2105 -160 c11
-11 20 -29 20 -40 0 -11 -9 -29 -20 -40 -20 -20 -33 -20 -692 -20 -740 0 -708
-3 -708 61 0 61 -22 59 712 59 655 0 668 0 688 -20z m0 -500 c11 -11 20 -29
20 -40 0 -11 -9 -29 -20 -40 -20 -20 -33 -20 -692 -20 -740 0 -708 -3 -708 61
0 61 -22 59 712 59 655 0 668 0 688 -20z"/>
<path d="M366 3231 c-82 -64 -149 -121 -148 -125 0 -5 68 -62 151 -127 l151
-119 0 245 c0 135 -1 245 -2 245 -2 -1 -70 -54 -152 -119z"/>
<path d="M4600 3106 l0 -246 143 111 c78 62 148 117 155 124 11 10 -13 33
-125 120 -76 60 -146 115 -155 123 -17 14 -18 2 -18 -232z"/>
<path d="M170 1893 c0 -1189 -2 -1142 58 -1263 36 -72 141 -177 214 -212 126
-62 -10 -58 2118 -58 1715 0 1953 2 2005 15 168 43 289 153 356 320 l24 60 3
1114 c2 902 0 1112 -10 1104 -141 -114 -1886 -1478 -1918 -1499 -158 -109
-377 -161 -563 -135 -109 15 -227 57 -316 111 -58 35 -882 676 -1958 1523 -10
7 -13 -210 -13 -1080z"/>
</g>
</svg>
